<?xml version="1.0" encoding="UTF-8"?>
<svg xmlns="http://www.w3.org/2000/svg" width="60.5mm" height="36.8mm" version="1.1" viewBox="0 0 171.5 104.3">
  <defs>
    <style>
      .cls-1 {
        fill: none;
      }

      .cls-1, .cls-2, .cls-3 {
        stroke-width: 0px;
      }

      .cls-2 {
        fill: #00aca9;
      }

      .cls-3 {
        fill: #fff;
      }

      .cls-4 {
        display: none;
        opacity: .5;
      }
    </style>
  </defs>
  <g id="logo">
    <path class="cls-2" d="M0,104.3h131.8c21.9,0,39.7-17.8,39.7-39.9V0S0,0,0,0v104.3Z"/>
    <g>
      <g>
        <path class="cls-3" d="M34.9,46.6h16.1c5.3,0,7.2,1.8,7.2,6v5.3c0,4.3-1.9,6-7.2,6h-16.1v-17.4ZM40.2,59.5h9.5c2.3,0,3.2-.6,3.2-3.1v-2.4c0-2.5-.9-3.1-3.2-3.1h-9.5v8.6Z"/>
        <path class="cls-3" d="M61.8,46.6h5.3v17.4h-5.3v-17.4Z"/>
        <path class="cls-3" d="M71.2,46.6h19v4h-13.7v2.8h13v3.6h-13v2.8h14v4.2h-19.3v-17.4h0Z"/>
        <path class="cls-3" d="M94,46.6h5.3v6.2h11.2v-6.2h5.3v17.4h-5.3v-6.6h-11.2v6.6h-5.3v-17.4Z"/>
        <path class="cls-3" d="M119.6,46.6h5.3v12.9h12v4.5h-17.3v-17.4h0Z"/>
      </g>
      <g>
        <path class="cls-3" d="M35.1,69.6h2.6l3.5,9.2,3.4-9.2h2.6v11.1h-1.6v-9.6h0l-3.7,9.6h-1.6l-3.7-9.6h0v9.6h-1.6v-11Z"/>
        <path class="cls-3" d="M56.2,80.3c-.6.2-1.2.5-2.6.5-2.9,0-4.2-1.7-4.2-4.4s1.5-4.1,3.8-4.1,3.6,2,3.6,4.6h-5.8c0,1.6,1.3,2.7,2.7,2.7s2.1-.5,2.5-.8v1.5ZM55.2,75.8c0-1.2-.7-2.2-2-2.2s-2.1,1.2-2.2,2.2h4.2Z"/>
        <path class="cls-3" d="M63.2,73.8h-2.1v4.4c0,.9.6,1.4,1.3,1.4s.8-.1,1-.3v1.3c-.3,0-.8.2-1.3.2-1.5,0-2.5-.7-2.5-2.3v-4.7h-1.8v-1.2h1.8v-1.9l1.5-.5v2.3h2.1v1.2h0Z"/>
        <path class="cls-3" d="M71.4,80.3c-.6.2-1.2.5-2.6.5-2.9,0-4.2-1.7-4.2-4.4s1.5-4.1,3.8-4.1,3.6,2,3.6,4.6h-5.8c0,1.6,1.3,2.7,2.7,2.7s2.1-.5,2.5-.8v1.5ZM70.5,75.8c0-1.2-.7-2.2-2-2.2s-2.1,1.2-2.2,2.2h4.2Z"/>
        <path class="cls-3" d="M74.2,72.6h1.4v1.3h0c.4-.8,1.3-1.4,2.1-1.4s.7,0,1,.1v1.3c-.3-.1-.6-.1-.8-.1-1.3,0-2.2,1.3-2.2,3.3v3.7h-1.5v-8.1h0Z"/>
        <path class="cls-3" d="M82.2,70.8h-1.7v-1.7h1.7v1.7ZM80.6,72.6h1.5v8.1h-1.5v-8.1Z"/>
        <path class="cls-3" d="M85,72.6h1.4v1.3h0c.4-.9,1.5-1.5,2.6-1.5,2.1,0,3,1.3,3,3.5v4.8h-1.5v-4.2c0-1.9-.4-2.8-1.7-2.9-1.7,0-2.5,1.4-2.5,3.3v3.7h-1.5v-8.1h0Z"/>
        <path class="cls-3" d="M101.9,80.3c0,2.5-1.3,3.9-4.2,3.9s-1.6-.1-2.9-.6l.2-1.4c1.1.5,1.8.7,2.9.7,1.6,0,2.5-1.1,2.5-2.8v-.8h0c-.6.8-1.7,1.3-2.7,1.3-2.3,0-3.5-1.9-3.5-4s1.2-4.3,3.6-4.3,2.2.5,2.7,1.4h0v-1.2h1.4v7.7h0ZM100.4,76.7c0-1.7-.8-3.1-2.4-3.1s-2.2,1.6-2.2,3,.9,2.9,2.2,2.9c1.4,0,2.4-1.2,2.4-2.7Z"/>
      </g>
    </g>
  </g>
  <g id="distance" class="cls-4">
    <g>
      <g>
        <path class="cls-1" d="M0,46.6h16.1c5.3,0,7.2,1.8,7.2,6v5.3c0,4.3-1.9,6-7.2,6H0v-17.4ZM5.3,59.5h9.5c2.3,0,3.2-.6,3.2-3.1v-2.4c0-2.5-.9-3.1-3.2-3.1H5.3v8.6Z"/>
        <path class="cls-1" d="M23.3,46.6h16.1c5.3,0,7.2,1.8,7.2,6v5.3c0,4.3-1.9,6-7.2,6h-16.1v-17.4ZM28.6,59.5h9.5c2.3,0,3.2-.6,3.2-3.1v-2.4c0-2.5-.9-3.1-3.2-3.1h-9.5v8.6Z"/>
      </g>
      <g>
        <path class="cls-1" d="M125,46.6h16.1c5.3,0,7.2,1.8,7.2,6v5.3c0,4.3-1.9,6-7.2,6h-16.1v-17.4ZM130.3,59.5h9.5c2.3,0,3.2-.6,3.2-3.1v-2.4c0-2.5-.9-3.1-3.2-3.1h-9.5v8.6Z"/>
        <path class="cls-1" d="M148.2,46.6h16.1c5.3,0,7.2,1.8,7.2,6v5.3c0,4.3-1.9,6-7.2,6h-16.1v-17.4ZM153.6,59.5h9.5c2.3,0,3.2-.6,3.2-3.1v-2.4c0-2.5-.9-3.1-3.2-3.1h-9.5v8.6Z"/>
      </g>
      <g>
        <path class="cls-1" d="M34.3,46.6v-16.1c0-5.3,1.8-7.2,6-7.2h5.3c4.3,0,6,1.9,6,7.2v16.1h-17.4ZM47.2,41.2v-9.5c0-2.3-.6-3.2-3.1-3.2h-2.4c-2.5,0-3.1.9-3.1,3.2v9.5h8.6Z"/>
        <path class="cls-1" d="M34.3,23.3V7.2C34.3,1.9,36,0,40.3,0h5.3c4.3,0,6,1.9,6,7.2v16.1h-17.4ZM47.2,18v-9.5c0-2.3-.6-3.2-3.1-3.2h-2.4c-2.5,0-3.1.9-3.1,3.2v9.5h8.6Z"/>
      </g>
      <path class="cls-1" d="M34.3,104.3v-16.1c0-5.3,1.8-7.2,6-7.2h5.3c4.3,0,6,1.9,6,7.2v16.1h-17.4ZM47.2,99v-9.5c0-2.3-.6-3.2-3.1-3.2h-2.4c-2.5,0-3.1.9-3.1,3.2v9.5h8.6Z"/>
    </g>
  </g>
</svg>