<?xml version="1.0" encoding="utf-8" ?>
<svg baseProfile="tiny" height="100%" version="1.2" width="100%" xmlns="http://www.w3.org/2000/svg" xmlns:ev="http://www.w3.org/2001/xml-events" xmlns:xlink="http://www.w3.org/1999/xlink"><defs /><polyline fill="none" points="38.002,48.0 39.0,47.002 40.0,47.002 41.0,47.002 41.002,47.0 42.0,46.002 42.002,46.0 42.002,45.0 42.002,44.0 42.002,43.0 42.002,42.0 42.002,41.0 42.002,40.0 42.002,39.0 42.002,38.0 42.0,37.998 41.002,37.0 41.0,36.998 40.002,36.0 40.0,35.998 39.0,35.998 38.0,35.998 37.0,35.998 36.0,35.998 35.0,35.998 34.0,35.998 33.0,35.998 32.0,35.998 31.0,35.998 30.0,35.998 29.0,35.998 28.0,35.998 27.0,35.998 26.0,35.998 25.0,35.998 24.998,36.0 25.0,36.002 25.998,37.0 25.998,38.0 25.998,39.0 25.998,40.0 25.998,41.0 25.998,42.0 25.998,43.0 25.998,44.0 25.998,45.0 25.998,46.0 25.998,47.0 25.998,48.0 26.0,48.002 27.0,48.002 28.0,48.002 29.0,48.002 30.0,48.002 31.0,48.002 32.0,48.002 33.0,48.002 34.0,48.002 35.0,48.002 36.0,48.002 37.0,48.002 38.0,48.002 38.002,48.0" stroke="black" /><polyline fill="none" points="49.002,48.0 49.002,47.0 49.002,46.0 49.002,45.0 49.002,44.0 49.002,43.0 49.002,42.0 49.002,41.0 49.002,40.0 49.002,39.0 49.002,38.0 49.002,37.0 49.002,36.0 49.0,35.998 48.0,35.998 47.0,35.998 46.998,36.0 46.998,37.0 46.998,38.0 46.998,39.0 46.998,40.0 46.998,41.0 46.998,42.0 46.998,43.0 46.998,44.0 46.998,45.0 46.998,46.0 46.998,47.0 46.998,48.0 47.0,48.002 48.0,48.002 49.0,48.002 49.002,48.0" stroke="black" /><polyline fill="none" points="67.002,48.0 67.002,47.0 67.002,46.0 67.0,45.998 66.0,45.998 65.0,45.998 64.0,45.998 63.0,45.998 62.0,45.998 61.0,45.998 60.0,45.998 59.0,45.998 58.0,45.998 57.0,45.998 56.002,45.0 56.002,44.0 57.0,43.002 57.002,43.0 58.0,42.002 59.0,42.002 60.0,42.002 61.0,42.002 62.0,42.002 63.0,42.002 64.0,42.002 65.0,42.002 66.0,42.002 67.0,42.002 67.002,42.0 67.0,41.998 66.002,41.0 66.0,40.998 65.0,40.998 64.0,40.998 63.0,40.998 62.0,40.998 61.0,40.998 60.0,40.998 59.0,40.998 58.0,40.998 57.0,40.998 56.002,40.0 56.002,39.0 57.0,38.002 57.002,38.0 58.0,37.002 59.0,37.002 60.0,37.002 61.0,37.002 62.0,37.002 63.0,37.002 64.0,37.002 65.0,37.002 66.0,37.002 67.0,37.002 67.002,37.0 67.002,36.0 67.0,35.998 66.0,35.998 65.0,35.998 64.0,35.998 63.0,35.998 62.0,35.998 61.0,35.998 60.0,35.998 59.0,35.998 58.0,35.998 57.0,35.998 56.0,35.998 55.0,35.998 54.0,35.998 53.998,36.0 53.998,37.0 53.998,38.0 53.998,39.0 53.998,40.0 53.998,41.0 53.998,42.0 53.998,43.0 53.998,44.0 53.998,45.0 53.998,46.0 53.998,47.0 53.998,48.0 54.0,48.002 55.0,48.002 56.0,48.002 57.0,48.002 58.0,48.002 59.0,48.002 60.0,48.002 61.0,48.002 62.0,48.002 63.0,48.002 64.0,48.002 65.0,48.002 66.0,48.002 67.0,48.002 67.002,48.0" stroke="black" /><polyline fill="none" points="87.002,48.0 87.002,47.0 87.002,46.0 87.002,45.0 87.002,44.0 87.002,43.0 87.002,42.0 87.002,41.0 87.002,40.0 87.002,39.0 87.002,38.0 87.002,37.0 87.002,36.0 87.0,35.998 86.0,35.998 85.0,35.998 84.998,36.0 84.998,37.0 84.998,38.0 84.998,39.0 84.998,40.0 84.0,40.998 83.0,40.998 82.0,40.998 81.0,40.998 80.0,40.998 79.0,40.998 78.0,40.998 77.0,40.998 76.0,40.998 75.0,40.998 74.002,40.0 74.002,39.0 74.002,38.0 74.002,37.0 74.002,36.0 74.0,35.998 73.0,35.998 72.0,35.998 71.998,36.0 71.998,37.0 71.998,38.0 71.998,39.0 71.998,40.0 71.998,41.0 71.998,42.0 71.998,43.0 71.998,44.0 71.998,45.0 71.998,46.0 71.998,47.0 71.998,48.0 72.0,48.002 73.0,48.002 74.0,48.002 74.002,48.0 74.002,47.0 74.002,46.0 74.002,45.0 74.002,44.0 75.0,43.002 75.002,43.0 76.0,42.002 77.0,42.002 78.0,42.002 79.0,42.002 80.0,42.002 81.0,42.002 82.0,42.002 83.0,42.002 83.998,43.0 84.0,43.002 84.998,44.0 84.998,45.0 84.998,46.0 84.998,47.0 84.998,48.0 85.0,48.002 86.0,48.002 87.0,48.002 87.002,48.0" stroke="black" /><polyline fill="none" points="104.002,48.0 104.002,47.0 104.002,46.0 104.0,45.998 103.0,45.998 102.0,45.998 101.0,45.998 100.0,45.998 99.0,45.998 98.0,45.998 97.0,45.998 96.0,45.998 95.0,45.998 94.002,45.0 94.002,44.0 94.002,43.0 94.002,42.0 94.002,41.0 94.002,40.0 94.002,39.0 94.002,38.0 94.002,37.0 94.002,36.0 94.0,35.998 93.0,35.998 92.0,35.998 91.998,36.0 91.998,37.0 91.998,38.0 91.998,39.0 91.998,40.0 91.998,41.0 91.998,42.0 91.998,43.0 91.998,44.0 91.998,45.0 91.998,46.0 91.998,47.0 91.998,48.0 92.0,48.002 93.0,48.002 94.0,48.002 95.0,48.002 96.0,48.002 97.0,48.002 98.0,48.002 99.0,48.002 100.0,48.002 101.0,48.002 102.0,48.002 103.0,48.002 104.0,48.002 104.002,48.0" stroke="black" /><polyline fill="none" points="38.0,45.998 37.0,45.998 36.0,45.998 35.0,45.998 34.0,45.998 33.0,45.998 32.0,45.998 31.0,45.998 30.0,45.998 29.0,45.998 28.002,45.0 28.002,44.0 28.002,43.0 28.002,42.0 28.002,41.0 28.002,40.0 28.002,39.0 29.0,38.002 29.002,38.0 30.0,37.002 31.0,37.002 32.0,37.002 33.0,37.002 34.0,37.002 35.0,37.002 36.0,37.002 36.998,38.0 37.0,38.002 38.0,38.002 38.998,39.0 39.0,39.002 39.998,40.0 39.998,41.0 39.998,42.0 39.998,43.0 39.0,43.998 38.998,44.0 38.998,45.0 38.0,45.998" stroke="black" /><polyline fill="none" points="61.002,53.0 61.0,52.998 60.998,53.0 61.0,53.002 61.002,53.0" stroke="black" /><polyline fill="none" points="27.002,55.0 27.0,54.998 26.002,54.0 26.0,53.998 25.998,54.0 25.998,55.0 26.0,55.002 27.0,55.002 27.002,55.0" stroke="black" /><polyline fill="none" points="33.002,55.0 33.002,54.0 33.0,53.998 32.998,54.0 32.0,54.998 31.998,55.0 32.0,55.002 33.0,55.002 33.002,55.0" stroke="black" /><polyline fill="none" points="45.002,56.0 45.002,55.0 45.0,54.998 44.998,55.0 44.0,55.998 43.998,56.0 44.0,56.002 45.0,56.002 45.002,56.0" stroke="black" /><polyline fill="none" points="38.002,61.0 38.0,60.998 37.002,60.0 37.002,59.0 37.002,58.0 37.002,57.0 38.0,56.002 38.002,56.0 38.0,55.998 37.998,56.0 37.0,56.998 36.998,57.0 36.998,58.0 36.998,59.0 36.998,60.0 37.0,60.002 37.998,61.0 38.0,61.002 38.002,61.0" stroke="black" /><polyline fill="none" points="41.002,58.0 41.002,57.0 41.0,56.998 40.002,56.0 40.0,55.998 39.998,56.0 40.0,56.002 40.998,57.0 40.998,58.0 41.0,58.002 41.002,58.0" stroke="black" /><polyline fill="none" points="49.002,58.0 49.002,57.0 50.0,56.002 50.002,56.0 50.0,55.998 49.998,56.0 49.0,56.998 48.998,57.0 48.998,58.0 49.0,58.002 49.002,58.0" stroke="black" /><polyline fill="none" points="53.002,58.0 53.002,57.0 53.0,56.998 52.002,56.0 52.0,55.998 51.998,56.0 52.0,56.002 52.998,57.0 52.998,58.0 53.0,58.002 53.002,58.0" stroke="black" /><polyline fill="none" points="56.002,61.0 56.002,60.0 56.002,59.0 56.002,58.0 56.002,57.0 56.002,56.0 56.0,55.998 55.998,56.0 55.998,57.0 55.998,58.0 55.998,59.0 55.998,60.0 55.998,61.0 56.0,61.002 56.002,61.0" stroke="black" /><polyline fill="none" points="58.002,56.0 58.0,55.998 57.998,56.0 58.0,56.002 58.002,56.0" stroke="black" /><polyline fill="none" points="61.002,61.0 61.002,60.0 61.002,59.0 61.002,58.0 61.002,57.0 61.002,56.0 61.0,55.998 60.998,56.0 60.998,57.0 60.998,58.0 60.998,59.0 60.998,60.0 60.998,61.0 61.0,61.002 61.002,61.0" stroke="black" /><polyline fill="none" points="65.002,57.0 65.002,56.0 65.0,55.998 64.998,56.0 64.998,57.0 65.0,57.002 65.002,57.0" stroke="black" /><polyline fill="none" points="69.002,58.0 69.002,57.0 69.0,56.998 68.002,56.0 68.0,55.998 67.998,56.0 68.0,56.002 68.998,57.0 68.998,58.0 69.0,58.002 69.002,58.0" stroke="black" /><polyline fill="none" points="72.002,60.0 72.002,59.0 72.002,58.0 72.002,57.0 73.0,56.002 73.002,56.0 73.0,55.998 72.998,56.0 72.0,56.998 71.998,57.0 71.998,58.0 71.998,59.0 71.998,60.0 72.0,60.002 72.002,60.0" stroke="black" /><polyline fill="none" points="76.002,57.0 76.002,56.0 76.0,55.998 75.998,56.0 75.998,57.0 76.0,57.002 76.002,57.0" stroke="black" /><polyline fill="none" points="28.002,58.0 28.002,57.0 28.0,56.998 27.998,57.0 27.998,58.0 28.0,58.002 28.002,58.0" stroke="black" /><polyline fill="none" points="31.002,58.0 31.0,57.998 30.998,58.0 31.0,58.002 31.002,58.0" stroke="black" /><polyline fill="none" points="25.002,60.0 25.0,59.998 24.998,60.0 25.0,60.002 25.002,60.0" stroke="black" /><polyline fill="none" points="30.002,60.0 30.0,59.998 29.0,59.998 28.998,60.0 29.0,60.002 30.0,60.002 30.002,60.0" stroke="black" /><polyline fill="none" points="46.002,61.0 46.0,60.998 45.002,60.0 45.0,59.998 44.998,60.0 44.998,61.0 45.0,61.002 46.0,61.002 46.002,61.0" stroke="black" /><polyline fill="none" points="50.002,61.0 50.0,60.998 49.002,60.0 49.0,59.998 48.998,60.0 49.0,60.002 49.998,61.0 50.0,61.002 50.002,61.0" stroke="black" /><polyline fill="none" points="69.002,60.0 69.0,59.998 68.998,60.0 69.0,60.002 69.002,60.0" stroke="black" /><polyline fill="none" points="76.002,60.0 76.0,59.998 75.998,60.0 76.0,60.002 76.002,60.0" stroke="black" /><polyline fill="none" points="76.002,63.0 76.0,62.998 75.998,63.0 76.0,63.002 76.002,63.0" stroke="black" /><polyline fill="none" points="129.0,62.998 128.998,63.0 128.998,64.0 128.0,64.998 127.998,65.0 127.998,66.0 127.0,66.998 126.998,67.0 126.0,67.998 125.998,68.0 125.0,68.998 124.998,69.0 124.998,70.0 124.0,70.998 123.998,71.0 123.0,71.998 122.998,72.0 122.0,72.998 121.998,73.0 121.0,73.998 120.0,73.998 119.998,74.0 119.0,74.998 118.998,75.0 118.0,75.998 117.0,75.998 116.998,76.0 116.0,76.998 115.998,77.0 115.0,77.998 114.0,77.998 113.998,78.0" stroke="black" /></svg>